<?xml version="1.0" encoding="UTF-8" standalone="no"?>
<!-- Created with Inkscape (http://www.inkscape.org/) -->

<svg
   xmlns:osb="http://www.openswatchbook.org/uri/2009/osb"
   xmlns:dc="http://purl.org/dc/elements/1.1/"
   xmlns:cc="http://creativecommons.org/ns#"
   xmlns:rdf="http://www.w3.org/1999/02/22-rdf-syntax-ns#"
   xmlns:svg="http://www.w3.org/2000/svg"
   xmlns="http://www.w3.org/2000/svg"
   xmlns:sodipodi="http://sodipodi.sourceforge.net/DTD/sodipodi-0.dtd"
   xmlns:inkscape="http://www.inkscape.org/namespaces/inkscape"
   id="svg4486"
   height="19"
   viewBox="0 0 19 19"
   width="19"
   version="1.1"
   inkscape:version="0.48.4 r9939"
   sodipodi:docname="close.svg">
  <defs
     id="defs10">
    <linearGradient
       id="linearGradient3781"
       osb:paint="solid">
      <stop
         style="stop-color:#000000;stop-opacity:1;"
         offset="0"
         id="stop3783" />
    </linearGradient>
  </defs>
  <sodipodi:namedview
     pagecolor="#ffffff"
     bordercolor="#666666"
     borderopacity="1"
     objecttolerance="10"
     gridtolerance="10"
     guidetolerance="10"
     inkscape:pageopacity="0"
     inkscape:pageshadow="2"
     inkscape:window-width="1920"
     inkscape:window-height="1176"
     id="namedview8"
     showgrid="true"
     inkscape:zoom="45.254834"
     inkscape:cx="5.475155"
     inkscape:cy="8.1735056"
     inkscape:window-x="0"
     inkscape:window-y="24"
     inkscape:window-maximized="1"
     inkscape:current-layer="g4113">
    <inkscape:grid
       type="xygrid"
       id="grid2991" />
  </sodipodi:namedview>
  <metadata
     id="metadata4491">
    <rdf:RDF>
      <cc:Work
         rdf:about="">
        <dc:format>image/svg+xml</dc:format>
        <dc:type
           rdf:resource="http://purl.org/dc/dcmitype/StillImage" />
        <dc:title></dc:title>
      </cc:Work>
    </rdf:RDF>
  </metadata>
  <g
     id="layer1"
     transform="translate(290.21 -522.86)">
    <g
       id="g4113"
       transform="translate(-289.71 -511)">
      <rect
         id="rect4539"
         style="color:#000000;fill:none"
         height="19"
         width="19"
         y="1033.86"
         x="-0.5" />
      <path
         style="fill:#f92672;stroke:none;fill-opacity:0"
         d="M 8.9037311,16.461705 C 8.0466727,16.364008 7.4583904,16.217893 6.7832155,15.93502 4.732166,15.075707 3.1747552,13.220436 2.6896932,11.058599 2.5588601,10.475498 2.5325583,10.214207 2.5326693,9.4986668 2.5327872,8.7382219 2.5654341,8.4488593 2.7216617,7.8235518 3.0390424,6.5532219 3.6393497,5.493153 4.5662267,4.5662758 5.6473171,3.4851855 6.9748623,2.8165894 8.5071401,2.5815003 c 0.4462392,-0.068464 1.5349469,-0.069275 1.9697359,-0.00147 1.532741,0.2390391 2.804373,0.8636587 3.883234,1.9074263 1.106902,1.070897 1.803421,2.4269849 2.053451,3.9979686 0.05826,0.366094 0.07972,1.2454324 0.04059,1.6639506 -0.125267,1.339975 -0.648209,2.639534 -1.493624,3.711791 -0.201465,0.255522 -0.843887,0.897944 -1.099409,1.099409 -1.056855,0.833271 -2.358713,1.362046 -3.671269,1.491158 -0.2513559,0.02473 -1.0990294,0.0313 -1.2861199,0.01 z M 8.546801,11.891431 9.5115693,10.926391 10.4769,11.891457 11.44223,12.856522 12.149304,12.149085 12.856378,11.441647 11.89136,10.476901 10.926342,9.5121546 11.897833,8.5403973 12.869324,7.5686399 12.155777,6.8547255 11.44223,6.1408111 10.470424,7.1123508 9.4986177,8.0838905 8.5268726,7.1124116 7.5551274,6.1409327 6.8480055,6.8480546 6.1408836,7.5551765 7.1123626,8.5269216 8.0838415,9.4986668 7.1123626,10.470412 6.1408836,11.442157 6.848041,12.149314 c 0.3889363,0.388936 0.7131947,0.707157 0.7205742,0.707157 0.00738,0 0.4475631,-0.434268 0.9781858,-0.96504 l 0,0 z"
         id="path3757"
         inkscape:connector-curvature="0"
         transform="translate(-0.5,1033.86)" />
      <path
         style="fill:#f92672;stroke:none;fill-opacity:0"
         d="M 8.9037311,16.461705 C 8.0466727,16.364008 7.4583904,16.217893 6.7832155,15.93502 4.732166,15.075707 3.1747552,13.220436 2.6896932,11.058599 2.5588601,10.475498 2.5325583,10.214207 2.5326693,9.4986668 2.5327872,8.7382219 2.5654341,8.4488593 2.7216617,7.8235518 3.0390424,6.5532219 3.6393497,5.493153 4.5662267,4.5662758 5.6473171,3.4851855 6.9748623,2.8165894 8.5071401,2.5815003 c 0.4462392,-0.068464 1.5349469,-0.069275 1.9697359,-0.00147 1.532741,0.2390391 2.804373,0.8636587 3.883234,1.9074263 1.106902,1.070897 1.803421,2.4269849 2.053451,3.9979686 0.05826,0.366094 0.07972,1.2454324 0.04059,1.6639506 -0.125267,1.339975 -0.648209,2.639534 -1.493624,3.711791 -0.201465,0.255522 -0.843887,0.897944 -1.099409,1.099409 -1.056855,0.833271 -2.358713,1.362046 -3.671269,1.491158 -0.2513559,0.02473 -1.0990294,0.0313 -1.2861199,0.01 z M 8.546801,11.891431 9.5115693,10.926391 10.4769,11.891457 11.44223,12.856522 12.149304,12.149085 12.856378,11.441647 11.89136,10.476901 10.926342,9.5121546 11.897833,8.5403973 12.869324,7.5686399 12.155777,6.8547255 11.44223,6.1408111 10.470424,7.1123508 9.4986177,8.0838905 8.5268726,7.1124116 7.5551274,6.1409327 6.8480055,6.8480546 6.1408836,7.5551765 7.1123626,8.5269216 8.0838415,9.4986668 7.1123626,10.470412 6.1408836,11.442157 6.848041,12.149314 c 0.3889363,0.388936 0.7131947,0.707157 0.7205742,0.707157 0.00738,0 0.4475631,-0.434268 0.9781858,-0.96504 l 0,0 z"
         id="path3759"
         inkscape:connector-curvature="0"
         transform="translate(-0.5,1033.86)" />
      <path
         style="fill:#aa0000;stroke:none;fill-opacity:0"
         d="M 8.5335795,16.399013 C 8.0631598,16.327062 7.7290188,16.249217 7.333438,16.119417 6.2500282,15.763923 5.3817147,15.224366 4.5539762,14.392298 3.5711601,13.404343 2.9282174,12.193374 2.6521297,10.81021 2.506048,10.078359 2.5063267,8.9229673 2.6527617,8.1899163 2.9295571,6.8042839 3.5750283,5.59242 4.5676687,4.5947033 5.6009521,3.5561358 6.8913183,2.8831771 8.3485036,2.6229019 8.7458593,2.5519282 9.7484603,2.5227094 10.216905,2.5684511 c 1.050233,0.1025509 2.183351,0.5018092 3.060196,1.078271 1.65962,1.0910798 2.747198,2.7414502 3.098461,4.7018306 0.08102,0.4521741 0.101526,1.5201912 0.03859,2.0098763 -0.154989,1.205857 -0.62989,2.373119 -1.368251,3.363028 -0.267736,0.35895 -0.976064,1.061622 -1.346789,1.336036 -0.972484,0.719843 -2.056364,1.17045 -3.231107,1.343285 -0.4756974,0.06999 -1.4712428,0.06908 -1.9344225,-0.0018 l 0,-2e-6 z m 0.8967656,-5.3638 0.077144,-0.08131 0.9616791,0.952969 0.961679,0.952969 0.15095,-0.130943 c 0.08302,-0.07202 0.40464,-0.388549 0.714706,-0.703402 L 12.860259,11.453036 12.62213,11.196325 C 12.491159,11.055134 12.061965,10.618447 11.668367,10.225908 L 10.952734,9.5122024 11.924216,8.5404533 12.895699,7.5687042 12.367102,7.0380841 C 12.076374,6.7462431 11.746677,6.4240599 11.634442,6.3221214 L 11.430379,6.1367785 10.463314,7.0959055 9.4962498,8.0550322 8.6844221,7.2496348 C 8.2379168,6.8066663 7.7997131,6.37484 7.7106358,6.2900211 L 7.548677,6.1358045 7.0280698,6.6457321 C 6.7417358,6.926192 6.4240478,7.2481899 6.3220962,7.3612826 L 6.1367295,7.5669058 7.094567,8.5326704 8.0524048,9.4984349 7.0949252,10.464665 6.137446,11.430896 6.2746668,11.589292 c 0.075471,0.08712 0.398074,0.408716 0.7168949,0.714663 l 0.5796744,0.556268 0.8909826,-0.871848 c 0.4900401,-0.479517 0.925697,-0.90844 0.9681264,-0.953162 l 0,0 z"
         id="path3769"
         inkscape:connector-curvature="0"
         transform="translate(-0.5,1033.86)" />
      <path
         style="fill:#f92672;stroke:none;fill-opacity:1"
         d=""
         id="path3809"
         inkscape:connector-curvature="0"
         transform="translate(-0.5,1033.86)" />
      <path
         sodipodi:type="arc"
         style="fill:#b6e354;fill-opacity:1;stroke:none"
         id="path2992"
         sodipodi:cx="9.9140625"
         sodipodi:cy="9.0859375"
         sodipodi:rx="7.5000377"
         sodipodi:ry="7.5000377"
         d="m 17.4141,9.0859375 a 7.5000377,7.5000377 0 1 1 -15.0000752,0 7.5000377,7.5000377 0 1 1 15.0000752,0 z"
         transform="translate(-0.9140625,1034.2741)" />
    </g>
  </g>
</svg>
