<?xml version="1.0" encoding="UTF-8" standalone="no"?>
<!-- Created with Inkscape (http://www.inkscape.org/) -->

<svg
   xmlns:osb="http://www.openswatchbook.org/uri/2009/osb"
   xmlns:dc="http://purl.org/dc/elements/1.1/"
   xmlns:cc="http://creativecommons.org/ns#"
   xmlns:rdf="http://www.w3.org/1999/02/22-rdf-syntax-ns#"
   xmlns:svg="http://www.w3.org/2000/svg"
   xmlns="http://www.w3.org/2000/svg"
   xmlns:sodipodi="http://sodipodi.sourceforge.net/DTD/sodipodi-0.dtd"
   xmlns:inkscape="http://www.inkscape.org/namespaces/inkscape"
   id="svg4486"
   height="19"
   viewBox="0 0 19 19"
   width="19"
   version="1.1"
   inkscape:version="0.48.4 r9939"
   sodipodi:docname="maximize_focused_prelight.svg">
  <defs
     id="defs10">
    <linearGradient
       id="linearGradient3781"
       osb:paint="solid">
      <stop
         style="stop-color:#000000;stop-opacity:1;"
         offset="0"
         id="stop3783" />
    </linearGradient>
  </defs>
  <sodipodi:namedview
     pagecolor="#ffffff"
     bordercolor="#666666"
     borderopacity="1"
     objecttolerance="10"
     gridtolerance="10"
     guidetolerance="10"
     inkscape:pageopacity="0"
     inkscape:pageshadow="2"
     inkscape:window-width="1920"
     inkscape:window-height="1176"
     id="namedview8"
     showgrid="true"
     inkscape:zoom="32"
     inkscape:cx="14.566075"
     inkscape:cy="7.0801955"
     inkscape:window-x="0"
     inkscape:window-y="24"
     inkscape:window-maximized="1"
     inkscape:current-layer="g4113"
     showguides="false"
     inkscape:snap-global="false">
    <inkscape:grid
       type="xygrid"
       id="grid3755" />
  </sodipodi:namedview>
  <metadata
     id="metadata4491">
    <rdf:RDF>
      <cc:Work
         rdf:about="">
        <dc:format>image/svg+xml</dc:format>
        <dc:type
           rdf:resource="http://purl.org/dc/dcmitype/StillImage" />
        <dc:title></dc:title>
      </cc:Work>
    </rdf:RDF>
  </metadata>
  <g
     id="layer1"
     transform="translate(290.21 -522.86)">
    <g
       id="g4113"
       transform="translate(-289.71 -511)">
      <rect
         id="rect4539"
         style="color:#000000;fill:none"
         height="19"
         width="19"
         y="1033.86"
         x="-0.5" />
      <path
         style="fill:#b6e354;fill-opacity:1;stroke:none"
         d="m 1.5,1043.36 c 0,4.1498 3.3502501,7.5 7.5,7.5 4.149857,0 7.5,-3.3502 7.5,-7.5 0,-4.1497 -3.350143,-7.5 -7.4999999,-7.5 -4.1497499,0 -7.5,3.3503 -7.5,7.5 z m 3.7500001,1.8416 0,-5.3572 c -8.572e-4,-0.01 -8.572e-4,-0.023 0,-0.033 l 0,-0.066 c 0.00964,-0.011 0.021697,-0.024 0.033482,-0.033 0.036857,-0.057 0.09991,-0.094 0.1674108,-0.1014 l 5.3906241,0 -5.5915169,5.5916 z m 1.9084821,1.9084 5.5915188,-5.5915 0,5.3571 c -0.0032,0.035 -0.0142,0.069 -0.03349,0.1014 -0.0096,0.012 -0.0217,0.024 -0.03348,0.033 -0.03,0.049 -0.07822,0.086 -0.133929,0.1013 -0.01071,10e-4 -0.02276,10e-4 -0.03349,0 l -5.357143,0 z"
         id="path2985"
         inkscape:connector-curvature="0" />
    </g>
  </g>
</svg>
